<?xml version="1.0" encoding="UTF-8"?>
<svg version="1.1" xmlns="http://www.w3.org/2000/svg" width="512" height="512">
<path d="M0 0 C0.93383192 -0.00445784 1.86766384 -0.00891569 2.82979369 -0.01350862 C4.3790773 -0.01323207 4.3790773 -0.01323207 5.95965958 -0.01294994 C7.05152706 -0.01662663 8.14339455 -0.02030332 9.26834893 -0.02409142 C12.95177306 -0.03516399 16.63516902 -0.03897814 20.31860733 -0.04278088 C22.94952866 -0.04904279 25.5804491 -0.05568935 28.21136856 -0.0626936 C36.12460631 -0.08246853 44.03784537 -0.09252567 51.95110166 -0.10142139 C55.67610532 -0.10580274 59.40110755 -0.11116996 63.12611008 -0.11641026 C75.50646418 -0.13342383 87.88681739 -0.14791835 100.2671814 -0.155159 C103.48093797 -0.15706894 106.69469453 -0.15898927 109.90845108 -0.16094494 C110.70723097 -0.16142868 111.50601087 -0.16191242 112.32899621 -0.16241082 C125.27084588 -0.17071242 138.21260316 -0.19605092 151.15441248 -0.22852562 C164.43667239 -0.26158329 177.71888533 -0.2796066 191.00118661 -0.28280324 C198.46066658 -0.28496958 205.92001183 -0.29373616 213.37945175 -0.31926441 C219.73192306 -0.34095385 226.08422694 -0.34903058 232.43673107 -0.33929763 C235.67806497 -0.33474765 238.91898055 -0.33885359 242.16028214 -0.35605907 C245.67475652 -0.37367327 249.18834964 -0.36672255 252.70282364 -0.35352612 C253.72675649 -0.36449536 254.75068935 -0.37546461 255.80565047 -0.38676625 C261.72667329 -0.33295957 265.05500834 0.22721066 269.58520889 4.13422108 C274.72420175 9.98204053 273.83757581 16.55836941 273.89770889 23.94672108 C273.9267128 25.12299061 273.95571671 26.29926014 273.98559952 27.5111742 C274.0664402 38.51172504 274.0664402 38.51172504 269.58520889 43.13422108 C268.27058559 43.83706373 266.93941608 44.51104766 265.58520889 45.13422108 C265.58691763 46.55477 265.58691763 46.55477 265.5886609 48.00401688 C265.65588543 104.11118102 265.70726171 160.21834147 265.73840488 216.3255378 C265.74214689 223.05977996 265.74603655 229.79402202 265.75000381 236.52826405 C265.75039609 237.19840234 265.75078837 237.86854064 265.75119253 238.55898616 C265.76397674 260.28039288 265.7865108 282.0017762 265.81410056 303.72316875 C265.8432032 326.67734808 265.86119707 349.63151779 265.86747438 372.58571625 C265.87159428 386.33742089 265.88461486 400.08905833 265.90895829 413.84074229 C265.92479484 423.26598446 265.92961397 432.6911918 265.92571303 442.11644632 C265.92378825 447.55734945 265.92677498 452.99813498 265.94282532 458.4390173 C265.95741071 463.41960337 265.95817001 468.39999262 265.94790558 473.3805877 C265.94663672 475.1828755 265.95045373 476.98517552 265.95985844 478.78743923 C265.97190186 481.23774609 265.96540629 483.68734295 265.95435238 486.13763905 C265.96223342 486.83697404 265.97011446 487.53630903 265.97823432 488.256836 C265.91771242 494.19586837 264.49261211 499.46668935 261.00708389 504.34125233 C260.17950577 505.13595936 260.17950577 505.13595936 259.33520889 505.94672108 C258.79380264 506.48941639 258.25239639 507.0321117 257.69458389 507.59125233 C251.58668927 512.05906413 246.09978284 512.5708917 238.76185989 512.52190113 C237.78963798 512.52728667 236.81741608 512.53267221 235.8157329 512.53822094 C232.56696815 512.55249687 229.31861106 512.54539756 226.06982803 512.53827381 C223.73697457 512.54397754 221.40412389 512.55094181 219.07127762 512.55907154 C212.74073813 512.57701728 206.41033715 512.57583189 200.07977986 512.57012916 C194.12495789 512.56664849 188.1701571 512.57459986 182.21533971 512.58148981 C169.70137262 512.59520763 157.1874681 512.58978216 144.67350244 512.5783046 C133.23353793 512.56837236 121.79373516 512.58131392 110.3537956 512.60523879 C98.59686951 512.62964066 86.84001873 512.63923503 75.08306783 512.63258606 C68.4865685 512.62921445 61.8902028 512.63164541 55.29372215 512.64883709 C49.09089443 512.66429727 42.8883757 512.66036056 36.68556023 512.64153194 C34.41037175 512.6378436 32.13516042 512.64096161 29.85999298 512.65141773 C26.7514861 512.66461197 23.64400447 512.65309317 20.53554153 512.63542652 C19.63757341 512.64503153 18.73960528 512.65463653 17.814426 512.6645326 C10.8597116 512.58333971 5.64466047 510.76726825 0.34302139 506.20453358 C-0.19580673 505.56258045 -0.73463486 504.92062733 -1.28979111 504.25922108 C-1.84408798 503.6224242 -2.39838486 502.98562733 -2.96947861 502.32953358 C-6.27197291 497.31331249 -6.70458493 492.24385738 -6.66088676 486.3837347 C-6.66319445 485.61873185 -6.66550214 484.853729 -6.66787976 484.06554425 C-6.67317827 481.49924763 -6.66419691 478.93320139 -6.65530014 476.36691761 C-6.65617224 474.50970332 -6.65792329 472.65248926 -6.66047847 470.79527652 C-6.66495518 465.68949453 -6.65694383 460.58379628 -6.64692235 455.47802496 C-6.63829485 449.97296653 -6.64120752 444.46791291 -6.6427269 438.96284962 C-6.64377619 429.4241788 -6.63749494 419.88553532 -6.62625122 410.34687138 C-6.61000522 396.55552445 -6.60478913 382.76419075 -6.60227524 368.97283529 C-6.59789672 346.59791233 -6.58460054 324.22300269 -6.56567001 301.84808826 C-6.54730072 280.11143539 -6.5331337 258.37478641 -6.52465439 236.63812733 C-6.52425981 235.63306441 -6.52425981 235.63306441 -6.52385726 234.60769718 C-6.52122022 227.87884836 -6.51866859 221.14999952 -6.51617954 214.42115064 C-6.49529808 157.99216387 -6.46000615 101.56319326 -6.41479111 45.13422108 C-7.33602768 44.71076405 -7.33602768 44.71076405 -8.27587509 44.27875233 C-11.50198915 42.55246278 -13.15150992 40.49665056 -14.41479111 37.13422108 C-14.97200014 32.79054042 -14.92743807 28.50728946 -14.85229111 24.13422108 C-14.85938095 22.9714867 -14.86647079 21.80875233 -14.87377548 20.61078358 C-14.79457473 9.96132831 -14.79457473 9.96132831 -11.41479111 5.13422108 C-7.5482842 1.64493435 -5.16790879 0.01140979 0 0 Z M1.58520889 15.13422108 C1.58520889 20.74422108 1.58520889 26.35422108 1.58520889 32.13422108 C4.33472382 32.14008732 7.08423874 32.14595356 9.9170723 32.15199757 C35.77246801 32.20858061 61.6277795 32.28161691 87.48308659 32.36993599 C100.77697501 32.41494822 114.07081155 32.45435026 127.36474991 32.48065662 C138.94844873 32.50359284 150.53206214 32.53694161 162.11569327 32.58292264 C168.25211376 32.606914 174.38844933 32.62560396 180.5249157 32.63183498 C186.29589913 32.63785915 192.06666515 32.65776183 197.83756828 32.68849659 C199.96003081 32.69731979 202.0825217 32.70099061 204.20500183 32.69922924 C207.09438731 32.69758793 209.98310088 32.71417755 212.87239456 32.73549366 C214.14329971 32.7282223 214.14329971 32.7282223 215.43987972 32.72080404 C221.13170522 32.79049661 221.13170522 32.79049661 223.30739421 34.43951863 C225.38160354 37.19043993 224.82270061 39.80933701 224.58520889 43.13422108 C224.25520889 44.12422108 223.92520889 45.11422108 223.58520889 46.13422108 C220.28520889 46.79422108 216.98520889 47.45422108 213.58520889 48.13422108 C214.31429459 49.93258411 214.31429459 49.93258411 215.05810928 51.76727772 C217.16302394 58.12147578 217.03431053 64.36780704 217.01880264 71.00531483 C217.02404449 72.3228223 217.02928635 73.64032978 217.03468704 74.99776173 C217.04357165 77.7738965 217.04124874 80.54974288 217.03125381 83.32587147 C217.01976905 86.85728488 217.03999029 90.38769752 217.06917095 93.91897964 C217.09208579 97.32280818 217.08505964 100.72641137 217.08130264 104.13031483 C217.09253662 105.38476902 217.1037706 106.63922321 217.115345 107.93169117 C217.02743706 119.09675435 213.80872523 127.00299629 207.58520889 136.13422108 C211.58461244 136.33611404 215.58471306 136.51789097 219.58520889 136.69672108 C220.69122452 136.7527953 221.79724014 136.80886951 222.93677139 136.86664295 C232.01247467 137.25783706 240.38283242 136.70936961 249.58520889 136.13422108 C249.58520889 106.76422108 249.58520889 77.39422108 249.58520889 47.13422108 C247.93520889 46.47422108 246.28520889 45.81422108 244.58520889 45.13422108 C242.55797781 42.55410879 242.57112821 41.31022964 242.83520889 38.00922108 C243.58520889 35.13422108 243.58520889 35.13422108 245.58520889 33.13422108 C249.57459802 32.54852129 253.55707345 32.39133611 257.58520889 32.13422108 C257.58520889 26.52422108 257.58520889 20.91422108 257.58520889 15.13422108 C173.10520889 15.13422108 88.62520889 15.13422108 1.58520889 15.13422108 Z M9.58520889 48.13422108 C9.58520889 63.64422108 9.58520889 79.15422108 9.58520889 95.13422108 C14.67958389 96.78422108 19.77395889 98.43422108 25.02270889 100.13422108 C26.63202286 100.65629139 28.24133682 101.1783617 29.89941788 101.71625233 C31.16834203 102.12652439 32.4373012 102.53668817 33.70630264 102.94672108 C34.37053238 103.16263905 35.03476212 103.37855701 35.71912003 103.60101795 C38.59463132 104.6776303 38.59463132 104.6776303 41.58520889 105.13422108 C41.59107513 104.55285892 41.59694138 103.97149677 41.60298538 103.37251759 C41.66722198 97.28829838 41.75171766 91.20459339 41.84766006 85.12079334 C41.88078941 82.85426101 41.90885817 80.58764856 41.93164444 78.32098866 C41.96541124 75.0513562 42.01773861 71.7824501 42.07349014 68.51312733 C42.08307503 67.00789257 42.08307503 67.00789257 42.09285355 65.47224903 C42.11264771 64.51193272 42.13244186 63.5516164 42.15283585 62.56219959 C42.1639389 61.72947025 42.17504196 60.89674091 42.18648148 60.03877735 C42.7477224 55.95038068 44.28021929 52.04918989 45.58520889 48.13422108 C33.70520889 48.13422108 21.82520889 48.13422108 9.58520889 48.13422108 Z M60.27270889 54.69672108 C57.82372416 58.23414347 57.46112197 60.87171382 57.4716835 65.064641 C57.47175903 66.065452 57.47183456 67.06626301 57.47191238 68.09740162 C57.47707367 69.17560673 57.48223495 70.25381184 57.48755264 71.36468983 C57.48896759 72.47024723 57.49038254 73.57580463 57.49184036 74.71486378 C57.49744375 78.25051025 57.50999685 81.7860937 57.52270889 85.32172108 C57.52772346 87.71690245 57.53228644 90.11208482 57.53638077 92.50726795 C57.54741429 98.38294054 57.56415574 104.25857631 57.58520889 110.13422108 C70.31363171 113.41779557 83.06149506 116.61224621 95.83325577 119.72308826 C99.32237154 120.57420061 102.80570506 121.44205112 106.28247452 122.34222889 C125.51989384 127.30219937 143.95426864 128.76148786 163.83520889 128.75922108 C164.96709641 128.76062092 166.09898392 128.76202076 167.26517105 128.76346302 C170.5027871 128.75629931 173.73859519 128.72181858 176.97583389 128.67328358 C177.94409607 128.66647068 178.91235825 128.65965778 179.9099617 128.65263844 C186.9752442 128.48139705 191.91182181 127.45115655 197.39770889 122.69672108 C200.85287028 118.64924631 201.83451405 115.96051059 201.8598671 110.63470936 C201.86939911 109.53321552 201.87893112 108.43172169 201.88875198 107.29684925 C201.88784058 106.11138508 201.88692917 104.92592091 201.88599014 103.70453358 C201.89241783 101.86990055 201.89241783 101.86990055 201.89897537 99.99820423 C201.90471861 97.41089974 201.90521899 94.82357909 201.90088272 92.23627186 C201.89772659 88.28140089 201.92117009 84.3272806 201.94653702 80.37250233 C201.9488104 77.85818035 201.94951333 75.34385637 201.94849014 72.82953358 C201.96230476 71.05741001 201.96230476 71.05741001 201.97639847 69.24948597 C201.93935204 62.66073151 201.76876862 57.54459931 197.05005264 52.48968983 C192.92605507 49.33604462 190.89937381 48.01175797 185.75348282 47.98705006 C184.73287766 47.97989475 183.71227249 47.97273945 182.6607399 47.96536732 C180.97447998 47.96133396 180.97447998 47.96133396 179.25415421 47.95721912 C178.0735643 47.95064793 176.8929744 47.94407673 175.67660904 47.9373064 C171.75552394 47.91753714 167.8344522 47.90590232 163.91333389 47.89593983 C162.56318262 47.89189223 161.21303156 47.88777531 159.86288071 47.88358974 C153.51865173 47.86453545 147.1744344 47.85030592 140.83018231 47.84197778 C133.50966026 47.83220928 126.18944089 47.8059013 118.86902547 47.76547688 C113.20948763 47.73529814 107.55003645 47.72050718 101.89041972 47.71719676 C98.51093036 47.71484788 95.13176426 47.70590958 91.7523613 47.68073559 C87.97927512 47.65644567 84.20698178 47.65729122 80.43384171 47.66425037 C79.31776535 47.65144032 78.201689 47.63863026 77.05179214 47.62543201 C69.22256652 47.6781169 65.60046554 48.79299073 60.27270889 54.69672108 Z M9.58520889 112.13422108 C9.58520889 115.76422108 9.58520889 119.39422108 9.58520889 123.13422108 C11.59034561 124.18222889 11.59034561 124.18222889 13.63599014 125.25140858 C15.3899422 126.17059201 17.14384594 127.08986764 18.89770889 128.00922108 C19.77878311 128.46941639 20.65985733 128.9296117 21.56763077 129.40375233 C22.41518936 129.84847889 23.26274796 130.29320545 24.13599014 130.75140858 C24.91627579 131.15988026 25.69656143 131.56835194 26.5004921 131.98920155 C28.58520889 133.13422108 28.58520889 133.13422108 31.58520889 135.13422108 C32.64693024 139.11567614 32.63611651 142.16412563 31.58520889 146.13422108 C25.58478261 147.81434044 21.85546326 146.69628981 16.28052139 144.14203358 C15.31191177 143.71192982 15.31191177 143.71192982 14.32373428 143.27313709 C12.74043078 142.56863295 11.1622783 141.85257206 9.58520889 141.13422108 C9.49371529 185.78143782 9.42320167 230.42864467 9.38094757 275.07593663 C9.37594456 280.34324905 9.37076729 285.61056128 9.36548233 290.87787342 C9.36443309 291.92652996 9.36338385 292.97518651 9.36230281 294.05562052 C9.34488287 311.05021171 9.31333645 328.04474895 9.27659771 345.0393081 C9.23923247 362.46863531 9.2169824 379.89793421 9.20885491 397.32729983 C9.20335796 408.08795134 9.18597716 418.84845037 9.15354303 429.60905495 C9.13244963 436.98132446 9.12599708 444.35351478 9.13120338 451.72581229 C9.13377325 455.98352275 9.12974864 460.24096621 9.10838699 464.49862957 C9.08898758 468.39350479 9.08789538 472.28793228 9.10161331 476.18282768 C9.10330988 477.59474236 9.09817945 479.00668446 9.08567616 480.4185448 C9.06970738 482.33240904 9.08063163 484.2464419 9.09301758 486.16033268 C9.0914987 487.22506849 9.08997982 488.28980429 9.08841491 489.38680482 C9.71701597 492.86315285 10.80075625 494.01488647 13.58520889 496.13422108 C17.72673118 497.66951701 22.17306925 497.27582306 26.53648758 497.26793385 C27.45109318 497.2701994 28.36569878 497.27246496 29.3080197 497.27479917 C32.37951414 497.28114055 35.45096448 497.28030972 38.52246475 497.27948475 C40.72181124 497.28247612 42.9211572 497.2858786 45.12050247 497.28966236 C51.09975228 497.29850806 57.07898779 497.3008407 63.05824351 497.30147815 C68.04602827 497.30242681 73.03380968 497.30610455 78.02159315 497.30965024 C89.11397359 497.31733124 100.20634838 497.32031866 111.29873114 497.31964489 C112.29699881 497.31958496 112.29699881 497.31958496 113.3154335 497.31952381 C114.31491973 497.31946249 114.31491973 497.31946249 115.3345976 497.31939993 C126.13654615 497.31899336 136.93845986 497.32856589 147.74039834 497.34266218 C158.83162234 497.35702181 169.92283196 497.36374941 181.0140658 497.3630684 C187.24103737 497.36281309 193.46796951 497.36568258 199.69493294 497.37624645 C205.54962039 497.38590745 211.40423054 497.38602035 217.25892067 497.37872982 C219.409589 497.37768154 221.5602621 497.38006125 223.71092224 497.38609028 C226.64302205 497.39377862 229.57485278 497.38918632 232.50694656 497.38145924 C233.78836616 497.38917458 233.78836616 497.38917458 235.09567302 497.39704579 C240.12332529 497.36769563 244.0832075 497.08281589 248.19464421 493.88076961 C250.08057732 491.51203858 249.95806929 490.02685768 249.95435238 487.01739693 C249.96032552 485.95247153 249.96629867 484.88754613 249.97245282 483.79035026 C249.9637143 482.6162405 249.95497577 481.44213074 249.94597244 480.2324419 C249.94853572 478.98847871 249.95109899 477.74451552 249.95373994 476.46285647 C249.95783632 473.00336714 249.94842578 469.54438365 249.93340576 466.08495533 C249.92047782 462.35695683 249.92483255 458.62897458 249.92711258 454.90095997 C249.92868737 448.43975892 249.9192567 441.97864859 249.90239906 435.51747036 C249.87804148 426.17564982 249.87020712 416.83387324 249.86643509 407.49202438 C249.85986551 392.33635478 249.83989062 377.18073355 249.81152725 362.02509022 C249.78399978 347.30080883 249.76275979 332.57654057 249.75000381 317.85223866 C249.74921564 316.94498017 249.74842747 316.03772168 249.74761542 315.10297052 C249.74370037 310.55162484 249.73990923 306.00027907 249.73617971 301.44893324 C249.70506803 263.67732836 249.65221845 225.90577848 249.58520889 188.13422108 C248.47183029 189.08110765 247.35951348 190.0292428 246.2476387 190.97789478 C245.62810224 191.50575171 245.00856577 192.03360865 244.37025547 192.57746124 C242.00653151 194.63889234 239.79800428 196.82654038 237.59692764 199.06000233 C236.29078506 200.37774647 236.29078506 200.37774647 234.95825577 201.7221117 C233.62891006 203.07079334 233.62891006 203.07079334 232.27270889 204.44672108 C230.4872544 206.25759129 228.69960731 208.06630316 226.90942764 209.87250233 C226.12656387 210.66696766 225.3437001 211.46143299 224.53711319 212.27997303 C222.5439091 214.17345459 221.53865072 215.12741903 218.77148819 215.14716053 C210.45582845 214.37995506 202.46927503 212.37013806 194.39770889 210.32172108 C193.23046783 210.02736164 193.23046783 210.02736164 192.03964615 209.72705555 C151.62906951 199.48689704 112.54386825 185.49121932 73.89770889 169.94672108 C73.10749344 169.63052814 72.31727798 169.31433521 71.50311661 168.98856068 C69.27322166 168.09330093 67.047696 167.18804069 64.82349014 166.27875233 C64.17540894 166.01893574 63.52732773 165.75911915 62.8596077 165.49142933 C58.46986952 163.67557857 53.99000566 161.53901785 50.58520889 158.13422108 C50.4495257 154.47077497 50.42059463 151.62806387 51.58520889 148.13422108 C56.24214224 147.0494458 59.0074955 147.25287718 63.46020889 148.94672108 C64.354496 149.28232044 64.354496 149.28232044 65.26684952 149.62469959 C69.96170636 151.41907201 74.58104473 153.39093433 79.20752335 155.35321522 C115.63473801 170.77768526 153.2022388 183.7636428 191.46020889 193.82172108 C192.27707169 194.03663197 193.09393448 194.25154285 193.93555069 194.47296619 C196.25206512 195.07872073 198.57034501 195.67693016 200.88989639 196.27093983 C201.90616608 196.5340823 201.90616608 196.5340823 202.94296646 196.80254078 C204.81677978 197.27485009 206.70096365 197.70541774 208.58520889 198.13422108 C209.73142715 198.47960926 210.87764542 198.82499744 212.05859756 199.18085194 C217.53880567 199.10838951 219.9648717 195.99552869 223.70630264 192.25140858 C224.45106354 191.52615986 225.19582443 190.80091114 225.96315384 190.05368519 C227.53223093 188.51194882 229.09086792 186.95952536 230.63965225 185.39740467 C233.00379314 183.02817753 235.41805215 180.72035057 237.84106827 178.41156483 C246.13256771 170.93586945 246.13256771 170.93586945 250.61694717 161.11566639 C250.61997517 157.92762304 250.39368698 155.21016663 249.58520889 152.13422108 C247.92425186 152.15162342 247.92425186 152.15162342 246.22974014 152.16937733 C171.93996545 152.7111732 98.63518768 139.45458499 27.9470253 116.98138905 C27.16047562 116.73215183 26.37392593 116.48291462 25.56354141 116.22612476 C24.10430282 115.76222956 22.6463027 115.2944108 21.18988419 114.82173634 C17.34109568 113.59383731 13.58667992 112.69327864 9.58520889 112.13422108 Z " fill="#000000" transform="translate(126.41479110717773,-0.13422107696533203)"/>
</svg>
