<svg width="20" height="20" viewBox="0 0 20 20" fill="none" xmlns="http://www.w3.org/2000/svg">
<mask id="mask0_2925_37136" style="mask-type:alpha" maskUnits="userSpaceOnUse" x="0" y="0" width="20" height="20">
<rect width="20" height="20" fill="#D9D9D9"/>
</mask>
<g mask="url(#mask0_2925_37136)">
<mask id="mask1_2925_37136" style="mask-type:alpha" maskUnits="userSpaceOnUse" x="-2" y="-3" width="25" height="25">
<rect x="-1.70312" y="-2.10059" width="24" height="24" fill="#D9D9D9"/>
</mask>
<g mask="url(#mask1_2925_37136)">
<path d="M6.79688 3.89941C6.24687 3.89941 5.77604 3.70358 5.38438 3.31191C4.99271 2.92025 4.79688 2.44941 4.79688 1.89941C4.79688 1.34941 4.99271 0.878581 5.38438 0.486914C5.77604 0.0952474 6.24687 -0.100586 6.79688 -0.100586C7.34688 -0.100586 7.81771 0.0952474 8.20937 0.486914C8.60104 0.878581 8.79688 1.34941 8.79688 1.89941C8.79688 2.44941 8.60104 2.92025 8.20937 3.31191C7.81771 3.70358 7.34688 3.89941 6.79688 3.89941ZM12.2969 17.8994H5.84688C5.29688 17.8994 4.79271 17.7036 4.33438 17.3119C3.87604 16.9202 3.58854 16.4494 3.47187 15.8994L1.29688 4.89941H3.34687L5.54688 15.8994H12.2969V17.8994ZM17.7969 19.8994L14.8969 14.8994H7.94688C7.46354 14.8994 7.04271 14.7536 6.68438 14.4619C6.32604 14.1702 6.09688 13.7827 5.99688 13.2994L4.89688 7.94941C4.71354 7.14941 4.90104 6.44108 5.45937 5.82441C6.01771 5.20775 6.69688 4.89941 7.49688 4.89941C8.08021 4.89941 8.60938 5.07441 9.08437 5.42441C9.55937 5.77441 9.86354 6.24941 9.99687 6.84941L11.0969 11.8994H14.3469C14.6969 11.8994 15.0219 11.9911 15.3219 12.1744C15.6219 12.3577 15.8635 12.5994 16.0469 12.8994L19.5469 18.8994L17.7969 19.8994Z" fill="#1C1B1F"/>
</g>
</g>
</svg>
