<svg width="16" height="17" viewBox="0 0 16 17" fill="none" xmlns="http://www.w3.org/2000/svg">
<mask id="mask0_2749_4189" style="mask-type:alpha" maskUnits="userSpaceOnUse" x="0" y="0" width="16" height="17">
<rect y="0.300049" width="16" height="16" fill="#D9D9D9"/>
</mask>
<g mask="url(#mask0_2749_4189)">
<path d="M9.33398 8.9668C8.96732 8.9668 8.65343 8.83624 8.39232 8.57513C8.13121 8.31402 8.00065 8.00013 8.00065 7.63346V4.30013C8.00065 3.93346 8.13121 3.61957 8.39232 3.35846C8.65343 3.09735 8.96732 2.9668 9.33398 2.9668H10.6673C11.034 2.9668 11.3479 3.09735 11.609 3.35846C11.8701 3.61957 12.0007 3.93346 12.0007 4.30013V7.63346C12.0007 8.00013 11.8701 8.31402 11.609 8.57513C11.3479 8.83624 11.034 8.9668 10.6673 8.9668H9.33398ZM9.33398 7.63346H10.6673V4.30013H9.33398V7.63346ZM6.33398 12.3001C6.03398 12.3001 5.76732 12.214 5.53398 12.0418C5.30065 11.8696 5.13954 11.639 5.05065 11.3501L3.33398 5.63346V2.9668H4.66732V5.63346L6.33398 10.9668H12.0007V12.3001H6.33398ZM5.33398 14.3001V12.9668H12.0007V14.3001H5.33398Z" fill="white"/>
</g>
</svg>
