<svg width="21" height="22" viewBox="0 0 21 22" fill="none" xmlns="http://www.w3.org/2000/svg">
<mask id="mask0_883_18411" style="mask-type:alpha" maskUnits="userSpaceOnUse" x="0" y="0" width="22" height="22">
<rect x="0.738281" y="0.845459" width="20.2668" height="20.2668" fill="#D9D9D9"/>
</mask>
<g mask="url(#mask0_883_18411)">
<path d="M9.35171 19.0853V15.0319H6.81836L9.45727 8.86743C9.56986 8.58595 9.75635 8.36076 10.0167 8.19187C10.2771 8.02298 10.5621 7.93853 10.8717 7.93853C11.1814 7.93853 11.4664 8.02298 11.7267 8.19187C11.9871 8.36076 12.1736 8.58595 12.2862 8.86743L14.9251 15.0319H12.3917V19.0853H9.35171ZM10.8664 6.41852C10.3774 6.41852 9.96042 6.24435 9.6156 5.89602C9.27079 5.54768 9.09838 5.12897 9.09838 4.6399C9.09838 4.15082 9.27255 3.73387 9.62088 3.38905C9.96922 3.04424 10.3879 2.87183 10.877 2.87183C11.3661 2.87183 11.783 3.04599 12.1278 3.39433C12.4727 3.74267 12.6451 4.16137 12.6451 4.65045C12.6451 5.13953 12.4709 5.55648 12.1226 5.9013C11.7742 6.24611 11.3555 6.41852 10.8664 6.41852Z" fill="#FF6B6B"/>
</g>
</svg>
